<svg width="300" height="400" xmlns="http://www.w3.org/2000/svg">
  <defs>
    <linearGradient id="grad4" x1="0%" y1="0%" x2="100%" y2="100%">
      <stop offset="0%" style="stop-color:#10b981;stop-opacity:1" />
      <stop offset="50%" style="stop-color:#059669;stop-opacity:1" />
      <stop offset="100%" style="stop-color:#047857;stop-opacity:1" />
    </linearGradient>
  </defs>

  <!-- Background -->
  <rect width="300" height="400" fill="url(#grad4)"/>

  <!-- Flyer mockup -->
  <rect x="20" y="50" width="148" height="210" fill="white" stroke="#e5e7eb" stroke-width="1" rx="4"/>
  <rect x="30" y="70" width="128" height="15" fill="#10b981" rx="2"/>
  <rect x="30" y="100" width="100" height="8" fill="#374151" rx="1"/>
  <rect x="30" y="120" width="80" height="6" fill="#6b7280" rx="1"/>
  <rect x="30" y="140" width="60" height="4" fill="#9ca3af" rx="1"/>

  <!-- Creative elements -->
  <circle cx="100" cy="180" r="25" fill="#10b981" opacity="0.2"/>
  <circle cx="120" cy="160" r="15" fill="#059669" opacity="0.3"/>
  <rect x="40" y="200" width="30" height="20" fill="#047857" opacity="0.2" rx="2"/>
  <rect x="80" y="220" width="20" height="15" fill="#065f46" opacity="0.3" rx="1"/>

  <rect x="30" y="250" width="40" height="4" fill="#10b981" rx="1"/>
  <rect x="30" y="270" width="50" height="4" fill="#6b7280" rx="1"/>
  <rect x="30" y="290" width="35" height="4" fill="#9ca3af" rx="1"/>

  <!-- Title -->
  <text x="150" y="25" fill="white" font-family="Arial, sans-serif" font-size="16" font-weight="bold" text-anchor="middle">Creative Flyer</text>
  <text x="150" y="40" fill="white" font-family="Arial, sans-serif" font-size="12" opacity="0.8" text-anchor="middle">Modern design</text>
</svg>
