<svg width="300" height="400" xmlns="http://www.w3.org/2000/svg">
  <defs>
    <linearGradient id="grad5" x1="0%" y1="0%" x2="100%" y2="100%">
      <stop offset="0%" style="stop-color:#6366f1;stop-opacity:1" />
      <stop offset="100%" style="stop-color:#4f46e5;stop-opacity:1" />
    </linearGradient>
  </defs>

  <!-- Background -->
  <rect width="300" height="400" fill="url(#grad5)"/>

  <!-- Template mockup -->
  <rect x="20" y="50" width="260" height="300" fill="white" stroke="#e5e7eb" stroke-width="1" rx="8"/>
  <rect x="40" y="80" width="220" height="15" fill="#6366f1" rx="3"/>
  <rect x="40" y="110" width="180" height="10" fill="#374151" rx="2"/>
  <rect x="40" y="135" width="150" height="8" fill="#6b7280" rx="2"/>
  <rect x="40" y="160" width="120" height="6" fill="#9ca3af" rx="2"/>

  <!-- Template icon -->
  <rect x="40" y="200" width="80" height="60" fill="#f3f4f6" stroke="#d1d5db" stroke-width="1" rx="4"/>
  <rect x="50" y="210" width="60" height="4" fill="#6366f1" rx="2"/>
  <rect x="50" y="220" width="40" height="3" fill="#9ca3af" rx="1"/>
  <rect x="50" y="230" width="50" height="3" fill="#9ca3af" rx="1"/>
  <rect x="50" y="240" width="35" height="3" fill="#9ca3af" rx="1"/>

  <!-- Decorative elements -->
  <circle cx="200" cy="280" r="20" fill="#6366f1" opacity="0.1"/>
  <circle cx="220" cy="260" r="15" fill="#4f46e5" opacity="0.15"/>
  <circle cx="240" cy="280" r="10" fill="#3730a3" opacity="0.2"/>

  <!-- Title -->
  <text x="150" y="25" fill="white" font-family="Arial, sans-serif" font-size="16" font-weight="bold" text-anchor="middle">Template</text>
  <text x="150" y="40" fill="white" font-family="Arial, sans-serif" font-size="12" opacity="0.8" text-anchor="middle">Professional design</text>
</svg>
